<svg width="240" height="240" viewBox="0 0 240 240" fill="none" xmlns="http://www.w3.org/2000/svg">
<rect width="240" height="240" fill="#012527"/>
<mask id="path-1-inside-1_2_30" fill="white">
<path fill-rule="evenodd" clip-rule="evenodd" d="M218.912 21.0883L168 0L117.088 21.0883L105.92 48.0503L72 34L21.0883 55.0883L0 106L21.0883 156.912L72 178H154L204.912 156.912L226 106L225.958 105.899L240 72L218.912 21.0883Z"/>
</mask>
<path d="M168 0L169.148 -2.77164L168 -3.24718L166.852 -2.77164L168 0ZM218.912 21.0883L221.683 19.9403L221.208 18.7922L220.06 18.3167L218.912 21.0883ZM117.088 21.0883L115.94 18.3167L114.792 18.7922L114.317 19.9403L117.088 21.0883ZM105.92 48.0503L104.772 50.8219L107.544 51.9699L108.692 49.1983L105.92 48.0503ZM72 34L73.148 31.2284L72 30.7528L70.852 31.2284L72 34ZM21.0883 55.0883L19.9403 52.3167L18.7922 52.7922L18.3167 53.9403L21.0883 55.0883ZM0 106L-2.77164 104.852L-3.24718 106L-2.77164 107.148L0 106ZM21.0883 156.912L18.3167 158.06L18.7922 159.208L19.9403 159.683L21.0883 156.912ZM72 178L70.852 180.772L71.4033 181H72V178ZM154 178V181H154.597L155.148 180.772L154 178ZM204.912 156.912L206.06 159.683L207.208 159.208L207.683 158.06L204.912 156.912ZM226 106L228.772 107.148L229.247 106L228.772 104.852L226 106ZM225.958 105.899L223.187 104.751L222.711 105.899L223.187 107.047L225.958 105.899ZM240 72L242.772 73.148L243.247 72L242.772 70.852L240 72ZM166.852 2.77164L217.764 23.8599L220.06 18.3167L169.148 -2.77164L166.852 2.77164ZM118.236 23.8599L169.148 2.77164L166.852 -2.77164L115.94 18.3167L118.236 23.8599ZM108.692 49.1983L119.86 22.2364L114.317 19.9403L103.149 46.9022L108.692 49.1983ZM70.852 36.7716L104.772 50.8219L107.068 45.2786L73.148 31.2284L70.852 36.7716ZM22.2364 57.8599L73.148 36.7716L70.852 31.2284L19.9403 52.3167L22.2364 57.8599ZM2.77164 107.148L23.8599 56.2364L18.3167 53.9403L-2.77164 104.852L2.77164 107.148ZM23.8599 155.764L2.77164 104.852L-2.77164 107.148L18.3167 158.06L23.8599 155.764ZM73.148 175.228L22.2364 154.14L19.9403 159.683L70.852 180.772L73.148 175.228ZM154 175H72V181H154V175ZM203.764 154.14L152.852 175.228L155.148 180.772L206.06 159.683L203.764 154.14ZM223.228 104.852L202.14 155.764L207.683 158.06L228.772 107.148L223.228 104.852ZM223.187 107.047L223.228 107.148L228.772 104.852L228.73 104.752L223.187 107.047ZM237.228 70.852L223.187 104.751L228.73 107.048L242.772 73.148L237.228 70.852ZM216.14 22.2364L237.228 73.148L242.772 70.852L221.683 19.9403L216.14 22.2364Z" fill="#32D7E6" mask="url(#path-1-inside-1_2_30)"/>
</svg>
