<?xml version="1.0" encoding="UTF-8"?>
<svg width="120px" height="120px" viewBox="0 0 120 120" version="1.1" xmlns="http://www.w3.org/2000/svg" xmlns:xlink="http://www.w3.org/1999/xlink">
    <!-- Generator: Sketch 50.2 (55047) - http://www.bohemiancoding.com/sketch -->
    <title>day67</title>
    <desc>Created with Sketch.</desc>
    <defs></defs>
    <g id="day67" stroke="none" stroke-width="1" fill="none" fill-rule="evenodd">
        <g id="lorge-cloud" fill="#012527" stroke="#32D7E6" stroke-width="4">
            <path d="M35.3978247,83 L96,83 L96,82.9012766 L114.335784,64.565493 L114.335784,43.4483761 L117.835216,35 L108.218004,11.7819964 L85,2.1647844 L61.7819964,11.7819964 L55.9567609,25.845359 L35,17.1647844 L11.7819964,26.7819964 L2.1647844,50 L11.7819964,73.2180036 L35.3978247,83 Z"></path>
        </g>
        <path d="M78.5,95.5 L74.5,99.5" id="Line-Copy" stroke="#32D7E6" stroke-width="4" stroke-linecap="square"></path>
        <path d="M64.5,109.5 L60.5,113.5" id="Line-Copy-2" stroke="#32D7E6" stroke-width="4" stroke-linecap="square"></path>
        <path d="M69.6715729,104.5 L71.0857864,105.914214 L71.0857864,103.085786 L69.6715729,104.5 Z M69.5,104.671573 L68.0857864,106.085786 L70.9142136,106.085786 L69.5,104.671573 Z M69.3284271,104.5 L67.9142136,103.085786 L67.9142136,105.914214 L69.3284271,104.5 Z M69.5,104.328427 L70.9142136,102.914214 L68.0857864,102.914214 L69.5,104.328427 Z" id="Polygon-Copy-6" stroke="#32D7E6" stroke-width="4"></path>
        <path d="M83.6715729,90.5 L85.0857864,91.9142136 L85.0857864,89.0857864 L83.6715729,90.5 Z M83.5,90.6715729 L82.0857864,92.0857864 L84.9142136,92.0857864 L83.5,90.6715729 Z M83.3284271,90.5 L81.9142136,89.0857864 L81.9142136,91.9142136 L83.3284271,90.5 Z M83.5,90.3284271 L84.9142136,88.9142136 L82.0857864,88.9142136 L83.5,90.3284271 Z" id="Polygon-Copy-7" stroke="#32D7E6" stroke-width="4"></path>
        <path d="M68.5,95.5 L64.5,99.5" id="Line-Copy" stroke="#32D7E6" stroke-width="4" stroke-linecap="square"></path>
        <path d="M54.5,109.5 L50.5,113.5" id="Line-Copy-2" stroke="#32D7E6" stroke-width="4" stroke-linecap="square"></path>
        <path d="M59.6715729,104.5 L61.0857864,105.914214 L61.0857864,103.085786 L59.6715729,104.5 Z M59.5,104.671573 L58.0857864,106.085786 L60.9142136,106.085786 L59.5,104.671573 Z M59.3284271,104.5 L57.9142136,103.085786 L57.9142136,105.914214 L59.3284271,104.5 Z M59.5,104.328427 L60.9142136,102.914214 L58.0857864,102.914214 L59.5,104.328427 Z" id="Polygon-Copy-6" stroke="#32D7E6" stroke-width="4"></path>
        <path d="M73.6715729,90.5 L75.0857864,91.9142136 L75.0857864,89.0857864 L73.6715729,90.5 Z M73.5,90.6715729 L72.0857864,92.0857864 L74.9142136,92.0857864 L73.5,90.6715729 Z M73.3284271,90.5 L71.9142136,89.0857864 L71.9142136,91.9142136 L73.3284271,90.5 Z M73.5,90.3284271 L74.9142136,88.9142136 L72.0857864,88.9142136 L73.5,90.3284271 Z" id="Polygon-Copy-7" stroke="#32D7E6" stroke-width="4"></path>
        <path d="M58.5,95.5 L54.5,99.5" id="Line-Copy" stroke="#32D7E6" stroke-width="4" stroke-linecap="square"></path>
        <path d="M44.5,109.5 L40.5,113.5" id="Line-Copy-2" stroke="#32D7E6" stroke-width="4" stroke-linecap="square"></path>
        <path d="M49.6715729,104.5 L51.0857864,105.914214 L51.0857864,103.085786 L49.6715729,104.5 Z M49.5,104.671573 L48.0857864,106.085786 L50.9142136,106.085786 L49.5,104.671573 Z M49.3284271,104.5 L47.9142136,103.085786 L47.9142136,105.914214 L49.3284271,104.5 Z M49.5,104.328427 L50.9142136,102.914214 L48.0857864,102.914214 L49.5,104.328427 Z" id="Polygon-Copy-6" stroke="#32D7E6" stroke-width="4"></path>
        <path d="M63.6715729,90.5 L65.0857864,91.9142136 L65.0857864,89.0857864 L63.6715729,90.5 Z M63.5,90.6715729 L62.0857864,92.0857864 L64.9142136,92.0857864 L63.5,90.6715729 Z M63.3284271,90.5 L61.9142136,89.0857864 L61.9142136,91.9142136 L63.3284271,90.5 Z M63.5,90.3284271 L64.9142136,88.9142136 L62.0857864,88.9142136 L63.5,90.3284271 Z" id="Polygon-Copy-7" stroke="#32D7E6" stroke-width="4"></path>
        <path d="M48.5,95.5 L44.5,99.5" id="Line-Copy" stroke="#32D7E6" stroke-width="4" stroke-linecap="square"></path>
        <path d="M34.5,109.5 L30.5,113.5" id="Line-Copy-2" stroke="#32D7E6" stroke-width="4" stroke-linecap="square"></path>
        <path d="M39.6715729,104.5 L41.0857864,105.914214 L41.0857864,103.085786 L39.6715729,104.5 Z M39.5,104.671573 L38.0857864,106.085786 L40.9142136,106.085786 L39.5,104.671573 Z M39.3284271,104.5 L37.9142136,103.085786 L37.9142136,105.914214 L39.3284271,104.5 Z M39.5,104.328427 L40.9142136,102.914214 L38.0857864,102.914214 L39.5,104.328427 Z" id="Polygon-Copy-6" stroke="#32D7E6" stroke-width="4"></path>
        <path d="M53.6715729,90.5 L55.0857864,91.9142136 L55.0857864,89.0857864 L53.6715729,90.5 Z M53.5,90.6715729 L52.0857864,92.0857864 L54.9142136,92.0857864 L53.5,90.6715729 Z M53.3284271,90.5 L51.9142136,89.0857864 L51.9142136,91.9142136 L53.3284271,90.5 Z M53.5,90.3284271 L54.9142136,88.9142136 L52.0857864,88.9142136 L53.5,90.3284271 Z" id="Polygon-Copy-7" stroke="#32D7E6" stroke-width="4"></path>
        <path d="M38.5,95.5 L34.5,99.5" id="Line-Copy" stroke="#32D7E6" stroke-width="4" stroke-linecap="square"></path>
        <path d="M24.5,109.5 L20.5,113.5" id="Line-Copy-2" stroke="#32D7E6" stroke-width="4" stroke-linecap="square"></path>
        <path d="M29.6715729,104.5 L31.0857864,105.914214 L31.0857864,103.085786 L29.6715729,104.5 Z M29.5,104.671573 L28.0857864,106.085786 L30.9142136,106.085786 L29.5,104.671573 Z M29.3284271,104.5 L27.9142136,103.085786 L27.9142136,105.914214 L29.3284271,104.5 Z M29.5,104.328427 L30.9142136,102.914214 L28.0857864,102.914214 L29.5,104.328427 Z" id="Polygon-Copy-6" stroke="#32D7E6" stroke-width="4"></path>
        <path d="M43.6715729,90.5 L45.0857864,91.9142136 L45.0857864,89.0857864 L43.6715729,90.5 Z M43.5,90.6715729 L42.0857864,92.0857864 L44.9142136,92.0857864 L43.5,90.6715729 Z M43.3284271,90.5 L41.9142136,89.0857864 L41.9142136,91.9142136 L43.3284271,90.5 Z M43.5,90.3284271 L44.9142136,88.9142136 L42.0857864,88.9142136 L43.5,90.3284271 Z" id="Polygon-Copy-7" stroke="#32D7E6" stroke-width="4"></path>
    </g>
</svg>