<?xml version="1.0" encoding="UTF-8"?>
<svg width="120px" height="120px" viewBox="0 0 120 120" version="1.1" xmlns="http://www.w3.org/2000/svg" xmlns:xlink="http://www.w3.org/1999/xlink">
    <!-- Generator: Sketch 50.2 (55047) - http://www.bohemiancoding.com/sketch -->
    <title>day77</title>
    <desc>Created with Sketch.</desc>
    <defs></defs>
    <g id="day77" stroke="none" stroke-width="1" fill="none" fill-rule="evenodd">
        <g id="lorge-cloud" fill="#012527" stroke="#32D7E6" stroke-width="4">
            <path d="M35.3978247,83 L96,83 L96,82.9012766 L114.335784,64.565493 L114.335784,43.4483761 L117.835216,35 L108.218004,11.7819964 L85,2.1647844 L61.7819964,11.7819964 L55.9567609,25.845359 L35,17.1647844 L11.7819964,26.7819964 L2.1647844,50 L11.7819964,73.2180036 L35.3978247,83 Z"></path>
        </g>
        <path d="M39.1715729,90 L40.5857864,91.4142136 L40.5857864,88.5857864 L39.1715729,90 Z M39,90.1715729 L37.5857864,91.5857864 L40.4142136,91.5857864 L39,90.1715729 Z M38.8284271,90 L37.4142136,88.5857864 L37.4142136,91.4142136 L38.8284271,90 Z M39,89.8284271 L40.4142136,88.4142136 L37.5857864,88.4142136 L39,89.8284271 Z" id="Polygon-Copy-7" stroke="#32D7E6" stroke-width="4"></path>
        <path d="M59.1715729,90 L60.5857864,91.4142136 L60.5857864,88.5857864 L59.1715729,90 Z M59,90.1715729 L57.5857864,91.5857864 L60.4142136,91.5857864 L59,90.1715729 Z M58.8284271,90 L57.4142136,88.5857864 L57.4142136,91.4142136 L58.8284271,90 Z M59,89.8284271 L60.4142136,88.4142136 L57.5857864,88.4142136 L59,89.8284271 Z" id="Polygon-Copy-9" stroke="#32D7E6" stroke-width="4"></path>
        <path d="M79.1715729,90 L80.5857864,91.4142136 L80.5857864,88.5857864 L79.1715729,90 Z M79,90.1715729 L77.5857864,91.5857864 L80.4142136,91.5857864 L79,90.1715729 Z M78.8284271,90 L77.4142136,88.5857864 L77.4142136,91.4142136 L78.8284271,90 Z M79,89.8284271 L80.4142136,88.4142136 L77.5857864,88.4142136 L79,89.8284271 Z" id="Polygon-Copy-11" stroke="#32D7E6" stroke-width="4"></path>
        <path d="M49.1715729,100 L50.5857864,101.414214 L50.5857864,98.5857864 L49.1715729,100 Z M49,100.171573 L47.5857864,101.585786 L50.4142136,101.585786 L49,100.171573 Z M48.8284271,100 L47.4142136,98.5857864 L47.4142136,101.414214 L48.8284271,100 Z M49,99.8284271 L50.4142136,98.4142136 L47.5857864,98.4142136 L49,99.8284271 Z" id="Polygon-Copy-8" stroke="#32D7E6" stroke-width="4"></path>
        <path d="M69.1715729,100 L70.5857864,101.414214 L70.5857864,98.5857864 L69.1715729,100 Z M69,100.171573 L67.5857864,101.585786 L70.4142136,101.585786 L69,100.171573 Z M68.8284271,100 L67.4142136,98.5857864 L67.4142136,101.414214 L68.8284271,100 Z M69,99.8284271 L70.4142136,98.4142136 L67.5857864,98.4142136 L69,99.8284271 Z" id="Polygon-Copy-10" stroke="#32D7E6" stroke-width="4"></path>
        <path d="M89.1715729,100 L90.5857864,101.414214 L90.5857864,98.5857864 L89.1715729,100 Z M89,100.171573 L87.5857864,101.585786 L90.4142136,101.585786 L89,100.171573 Z M88.8284271,100 L87.4142136,98.5857864 L87.4142136,101.414214 L88.8284271,100 Z M89,99.8284271 L90.4142136,98.4142136 L87.5857864,98.4142136 L89,99.8284271 Z" id="Polygon-Copy-12" stroke="#32D7E6" stroke-width="4"></path>
        <path d="M39.1715729,110 L40.5857864,111.414214 L40.5857864,108.585786 L39.1715729,110 Z M39,110.171573 L37.5857864,111.585786 L40.4142136,111.585786 L39,110.171573 Z M38.8284271,110 L37.4142136,108.585786 L37.4142136,111.414214 L38.8284271,110 Z M39,109.828427 L40.4142136,108.414214 L37.5857864,108.414214 L39,109.828427 Z" id="Polygon-Copy-7" stroke="#32D7E6" stroke-width="4"></path>
        <path d="M59.1715729,110 L60.5857864,111.414214 L60.5857864,108.585786 L59.1715729,110 Z M59,110.171573 L57.5857864,111.585786 L60.4142136,111.585786 L59,110.171573 Z M58.8284271,110 L57.4142136,108.585786 L57.4142136,111.414214 L58.8284271,110 Z M59,109.828427 L60.4142136,108.414214 L57.5857864,108.414214 L59,109.828427 Z" id="Polygon-Copy-9" stroke="#32D7E6" stroke-width="4"></path>
        <path d="M79.1715729,110 L80.5857864,111.414214 L80.5857864,108.585786 L79.1715729,110 Z M79,110.171573 L77.5857864,111.585786 L80.4142136,111.585786 L79,110.171573 Z M78.8284271,110 L77.4142136,108.585786 L77.4142136,111.414214 L78.8284271,110 Z M79,109.828427 L80.4142136,108.414214 L77.5857864,108.414214 L79,109.828427 Z" id="Polygon-Copy-11" stroke="#32D7E6" stroke-width="4"></path>
    </g>
</svg>