<?xml version="1.0" encoding="UTF-8"?>
<svg width="120px" height="120px" viewBox="0 0 120 120" version="1.1" xmlns="http://www.w3.org/2000/svg" xmlns:xlink="http://www.w3.org/1999/xlink">
    <!-- Generator: Sketch 50.2 (55047) - http://www.bohemiancoding.com/sketch -->
    <title>day86</title>
    <desc>Created with Sketch.</desc>
    <defs></defs>
    <g id="day86" stroke="none" stroke-width="1" fill="none" fill-rule="evenodd">
        <g id="lorge-cloud" fill="#012527" stroke="#32D7E6" stroke-width="4">
            <path d="M35.3978247,83 L96,83 L96,82.9012766 L114.335784,64.565493 L114.335784,43.4483761 L117.835216,35 L108.218004,11.7819964 L85,2.1647844 L61.7819964,11.7819964 L55.9567609,25.845359 L35,17.1647844 L11.7819964,26.7819964 L2.1647844,50 L11.7819964,73.2180036 L35.3978247,83 Z"></path>
        </g>
        <g id="Snow" transform="translate(47.000000, 87.000000)" stroke="#32D7E6" stroke-width="2">
            <path d="M5,1.41421356 L1.41421356,5 L5,8.58578644 L8.58578644,5 L5,1.41421356 Z" id="Polygon"></path>
        </g>
        <g id="Snow" transform="translate(40.000000, 94.000000)" stroke="#32D7E6" stroke-width="2">
            <path d="M5,1.41421356 L1.41421356,5 L5,8.58578644 L8.58578644,5 L5,1.41421356 Z" id="Polygon"></path>
        </g>
        <g id="Snow" transform="translate(26.000000, 94.000000)" stroke="#32D7E6" stroke-width="2">
            <path d="M5,1.41421356 L1.41421356,5 L5,8.58578644 L8.58578644,5 L5,1.41421356 Z" id="Polygon"></path>
        </g>
        <g id="Snow" transform="translate(33.000000, 87.000000)" stroke="#32D7E6" stroke-width="2">
            <path d="M5,1.41421356 L1.41421356,5 L5,8.58578644 L8.58578644,5 L5,1.41421356 Z" id="Polygon"></path>
        </g>
        <g id="Snow" transform="translate(33.000000, 101.000000)" stroke="#32D7E6" stroke-width="2">
            <path d="M5,1.41421356 L1.41421356,5 L5,8.58578644 L8.58578644,5 L5,1.41421356 Z" id="Polygon"></path>
        </g>
        <g id="Snow" transform="translate(47.000000, 101.000000)" stroke="#32D7E6" stroke-width="2">
            <path d="M5,1.41421356 L1.41421356,5 L5,8.58578644 L8.58578644,5 L5,1.41421356 Z" id="Polygon"></path>
        </g>
        <g id="Snow" transform="translate(54.000000, 94.000000)" stroke="#32D7E6" stroke-width="2">
            <path d="M5,1.41421356 L1.41421356,5 L5,8.58578644 L8.58578644,5 L5,1.41421356 Z" id="Polygon"></path>
        </g>
        <g id="Snow" transform="translate(75.000000, 87.000000)" stroke="#32D7E6" stroke-width="2">
            <path d="M5,1.41421356 L1.41421356,5 L5,8.58578644 L8.58578644,5 L5,1.41421356 Z" id="Polygon"></path>
        </g>
        <g id="Snow" transform="translate(68.000000, 94.000000)" stroke="#32D7E6" stroke-width="2">
            <path d="M5,1.41421356 L1.41421356,5 L5,8.58578644 L8.58578644,5 L5,1.41421356 Z" id="Polygon"></path>
        </g>
        <g id="Snow" transform="translate(61.000000, 87.000000)" stroke="#32D7E6" stroke-width="2">
            <path d="M5,1.41421356 L1.41421356,5 L5,8.58578644 L8.58578644,5 L5,1.41421356 Z" id="Polygon"></path>
        </g>
        <g id="Snow" transform="translate(61.000000, 101.000000)" stroke="#32D7E6" stroke-width="2">
            <path d="M5,1.41421356 L1.41421356,5 L5,8.58578644 L8.58578644,5 L5,1.41421356 Z" id="Polygon"></path>
        </g>
        <g id="Snow" transform="translate(75.000000, 101.000000)" stroke="#32D7E6" stroke-width="2">
            <path d="M5,1.41421356 L1.41421356,5 L5,8.58578644 L8.58578644,5 L5,1.41421356 Z" id="Polygon"></path>
        </g>
        <g id="Snow" transform="translate(82.000000, 94.000000)" stroke="#32D7E6" stroke-width="2">
            <path d="M5,1.41421356 L1.41421356,5 L5,8.58578644 L8.58578644,5 L5,1.41421356 Z" id="Polygon"></path>
        </g>
        <g id="Snow" transform="translate(40.000000, 108.000000)" stroke="#32D7E6" stroke-width="2">
            <path d="M5,1.41421356 L1.41421356,5 L5,8.58578644 L8.58578644,5 L5,1.41421356 Z" id="Polygon"></path>
        </g>
        <g id="Snow" transform="translate(26.000000, 108.000000)" stroke="#32D7E6" stroke-width="2">
            <path d="M5,1.41421356 L1.41421356,5 L5,8.58578644 L8.58578644,5 L5,1.41421356 Z" id="Polygon"></path>
        </g>
        <g id="Snow" transform="translate(54.000000, 108.000000)" stroke="#32D7E6" stroke-width="2">
            <path d="M5,1.41421356 L1.41421356,5 L5,8.58578644 L8.58578644,5 L5,1.41421356 Z" id="Polygon"></path>
        </g>
        <g id="Snow" transform="translate(68.000000, 108.000000)" stroke="#32D7E6" stroke-width="2">
            <path d="M5,1.41421356 L1.41421356,5 L5,8.58578644 L8.58578644,5 L5,1.41421356 Z" id="Polygon"></path>
        </g>
        <g id="Snow" transform="translate(82.000000, 108.000000)" stroke="#32D7E6" stroke-width="2">
            <path d="M5,1.41421356 L1.41421356,5 L5,8.58578644 L8.58578644,5 L5,1.41421356 Z" id="Polygon"></path>
        </g>
        <g id="Snow" transform="translate(89.000000, 101.000000)" stroke="#32D7E6" stroke-width="2">
            <path d="M5,1.41421356 L1.41421356,5 L5,8.58578644 L8.58578644,5 L5,1.41421356 Z" id="Polygon"></path>
        </g>
        <g id="Snow" transform="translate(89.000000, 87.000000)" stroke="#32D7E6" stroke-width="2">
            <path d="M5,1.41421356 L1.41421356,5 L5,8.58578644 L8.58578644,5 L5,1.41421356 Z" id="Polygon"></path>
        </g>
        <path d="M105.505494,110.5 L14.4949585,110.5" id="Line" stroke="#32D7E6" stroke-width="4" stroke-linecap="square"></path>
        <path d="M105.505494,94.5 L14.4949585,94.5" id="Line" stroke="#32D7E6" stroke-width="4" stroke-linecap="square"></path>
    </g>
</svg>