<svg width="240" height="240" viewBox="0 0 240 240" fill="none" xmlns="http://www.w3.org/2000/svg">
<g clip-path="url(#clip0_2_17)">
<rect width="240" height="240" fill="#012527"/>
<path fill-rule="evenodd" clip-rule="evenodd" d="M120 4.32957L38.2087 38.2087L4.32957 120L38.2087 201.791L120 235.67L201.791 201.791L235.67 120L201.791 38.2087L120 4.32957ZM204.853 35.1472L120 0L35.1472 35.1472L0 120L35.1472 204.853L120 240L204.853 204.853L240 120L204.853 35.1472ZM98.5 13.3296L38.2754 38.2754L13.3296 98.5L38.2754 158.725L98.5 183.67L158.725 158.725L183.67 98.5L158.725 38.2754L98.5 13.3296ZM161.786 35.2139L98.5 9L35.2139 35.2139L9 98.5L35.2139 161.786L98.5 188L161.786 161.786L188 98.5L161.786 35.2139Z" fill="#32D7E6"/>
</g>
<defs>
<clipPath id="clip0_2_17">
<rect width="240" height="240" fill="white"/>
</clipPath>
</defs>
</svg>
