<?xml version="1.0" encoding="UTF-8"?>
<svg width="120px" height="120px" viewBox="0 0 120 120" version="1.1" xmlns="http://www.w3.org/2000/svg" xmlns:xlink="http://www.w3.org/1999/xlink">
    <!-- Generator: Sketch 50.2 (55047) - http://www.bohemiancoding.com/sketch -->
    <title>night48</title>
    <desc>Created with Sketch.</desc>
    <defs></defs>
    <g id="night48" stroke="none" stroke-width="1" fill="none" fill-rule="evenodd">
        <g id="fog-line" transform="translate(5.000000, 53.000000)" stroke="#32D7E6" stroke-linecap="square" stroke-width="4">
            <polyline points="0 11 10 1 20 11 30 1 40 11 50 1 60 11 70 1 80 11 90 1 100 11 110 1"></polyline>
        </g>
        <g id="fog-line" transform="translate(5.000000, 38.000000)" stroke="#32D7E6" stroke-linecap="square" stroke-width="4">
            <polyline points="0 11 10 1 20 11 30 1 40 11 50 1 60 11 70 1 80 11 90 1 100 11 110 1"></polyline>
        </g>
        <g id="fog-line" transform="translate(5.000000, 23.000000)" stroke="#32D7E6" stroke-linecap="square" stroke-width="4">
            <polyline points="0 11 10 1 20 11 30 1 40 11 50 1 60 11 70 1 80 11 90 1 100 11 110 1"></polyline>
        </g>
        <g id="fog-line" transform="translate(5.000000, 68.000000)" stroke="#32D7E6" stroke-linecap="square" stroke-width="4">
            <polyline points="0 11 10 1 20 11 30 1 40 11 50 1 60 11 70 1 80 11 90 1 100 11 110 1"></polyline>
        </g>
        <g id="Snow" transform="translate(10.000000, 83.000000)" stroke="#32D7E6" stroke-width="2">
            <path d="M5,1.41421356 L1.41421356,5 L5,8.58578644 L8.58578644,5 L5,1.41421356 Z" id="Polygon"></path>
        </g>
        <g id="Snow" transform="translate(50.000000, 83.000000)" stroke="#32D7E6" stroke-width="2">
            <path d="M5,1.41421356 L1.41421356,5 L5,8.58578644 L8.58578644,5 L5,1.41421356 Z" id="Polygon"></path>
        </g>
        <g id="Snow" transform="translate(70.000000, 83.000000)" stroke="#32D7E6" stroke-width="2">
            <path d="M5,1.41421356 L1.41421356,5 L5,8.58578644 L8.58578644,5 L5,1.41421356 Z" id="Polygon"></path>
        </g>
        <g id="Snow" transform="translate(90.000000, 83.000000)" stroke="#32D7E6" stroke-width="2">
            <path d="M5,1.41421356 L1.41421356,5 L5,8.58578644 L8.58578644,5 L5,1.41421356 Z" id="Polygon"></path>
        </g>
        <g id="Snow" transform="translate(30.000000, 83.000000)" stroke="#32D7E6" stroke-width="2">
            <path d="M5,1.41421356 L1.41421356,5 L5,8.58578644 L8.58578644,5 L5,1.41421356 Z" id="Polygon"></path>
        </g>
        <g id="Snow" transform="translate(20.000000, 93.000000)" stroke="#32D7E6" stroke-width="2">
            <path d="M5,1.41421356 L1.41421356,5 L5,8.58578644 L8.58578644,5 L5,1.41421356 Z" id="Polygon"></path>
        </g>
        <g id="Snow" transform="translate(60.000000, 93.000000)" stroke="#32D7E6" stroke-width="2">
            <path d="M5,1.41421356 L1.41421356,5 L5,8.58578644 L8.58578644,5 L5,1.41421356 Z" id="Polygon"></path>
        </g>
        <g id="Snow" transform="translate(80.000000, 93.000000)" stroke="#32D7E6" stroke-width="2">
            <path d="M5,1.41421356 L1.41421356,5 L5,8.58578644 L8.58578644,5 L5,1.41421356 Z" id="Polygon"></path>
        </g>
        <g id="Snow" transform="translate(100.000000, 93.000000)" stroke="#32D7E6" stroke-width="2">
            <path d="M5,1.41421356 L1.41421356,5 L5,8.58578644 L8.58578644,5 L5,1.41421356 Z" id="Polygon"></path>
        </g>
        <g id="Snow" transform="translate(40.000000, 93.000000)" stroke="#32D7E6" stroke-width="2">
            <path d="M5,1.41421356 L1.41421356,5 L5,8.58578644 L8.58578644,5 L5,1.41421356 Z" id="Polygon"></path>
        </g>
    </g>
</svg>