<?xml version="1.0" encoding="UTF-8"?>
<svg width="120px" height="120px" viewBox="0 0 120 120" version="1.1" xmlns="http://www.w3.org/2000/svg" xmlns:xlink="http://www.w3.org/1999/xlink">
    <!-- Generator: Sketch 50.2 (55047) - http://www.bohemiancoding.com/sketch -->
    <title>night57</title>
    <desc>Created with Sketch.</desc>
    <defs></defs>
    <g id="night57" stroke="none" stroke-width="1" fill="none" fill-rule="evenodd">
        <g id="lorge-cloud" fill="#012527" stroke="#32D7E6" stroke-width="4">
            <path d="M35.3978247,83 L96,83 L96,82.9012766 L114.335784,64.565493 L114.335784,43.4483761 L117.835216,35 L108.218004,11.7819964 L85,2.1647844 L61.7819964,11.7819964 L55.9567609,25.845359 L35,17.1647844 L11.7819964,26.7819964 L2.1647844,50 L11.7819964,73.2180036 L35.3978247,83 Z"></path>
        </g>
        <path d="M40.1715729,91 L41.5857864,92.4142136 L41.5857864,89.5857864 L40.1715729,91 Z M40,91.1715729 L38.5857864,92.5857864 L41.4142136,92.5857864 L40,91.1715729 Z M39.8284271,91 L38.4142136,89.5857864 L38.4142136,92.4142136 L39.8284271,91 Z M40,90.8284271 L41.4142136,89.4142136 L38.5857864,89.4142136 L40,90.8284271 Z" id="Polygon" stroke="#32D7E6" stroke-width="4"></path>
        <path d="M35.1715729,96 L36.5857864,97.4142136 L36.5857864,94.5857864 L35.1715729,96 Z M35,96.1715729 L33.5857864,97.5857864 L36.4142136,97.5857864 L35,96.1715729 Z M34.8284271,96 L33.4142136,94.5857864 L33.4142136,97.4142136 L34.8284271,96 Z M35,95.8284271 L36.4142136,94.4142136 L33.5857864,94.4142136 L35,95.8284271 Z" id="Polygon" stroke="#32D7E6" stroke-width="4"></path>
        <path d="M60.1715729,91 L61.5857864,92.4142136 L61.5857864,89.5857864 L60.1715729,91 Z M60,91.1715729 L58.5857864,92.5857864 L61.4142136,92.5857864 L60,91.1715729 Z M59.8284271,91 L58.4142136,89.5857864 L58.4142136,92.4142136 L59.8284271,91 Z M60,90.8284271 L61.4142136,89.4142136 L58.5857864,89.4142136 L60,90.8284271 Z" id="Polygon-Copy-4" stroke="#32D7E6" stroke-width="4"></path>
        <path d="M55.1715729,96 L56.5857864,97.4142136 L56.5857864,94.5857864 L55.1715729,96 Z M55,96.1715729 L53.5857864,97.5857864 L56.4142136,97.5857864 L55,96.1715729 Z M54.8284271,96 L53.4142136,94.5857864 L53.4142136,97.4142136 L54.8284271,96 Z M55,95.8284271 L56.4142136,94.4142136 L53.5857864,94.4142136 L55,95.8284271 Z" id="Polygon-Copy-3" stroke="#32D7E6" stroke-width="4"></path>
        <path d="M80.1715729,91 L81.5857864,92.4142136 L81.5857864,89.5857864 L80.1715729,91 Z M80,91.1715729 L78.5857864,92.5857864 L81.4142136,92.5857864 L80,91.1715729 Z M79.8284271,91 L78.4142136,89.5857864 L78.4142136,92.4142136 L79.8284271,91 Z M80,90.8284271 L81.4142136,89.4142136 L78.5857864,89.4142136 L80,90.8284271 Z" id="Polygon" stroke="#32D7E6" stroke-width="4"></path>
        <path d="M75.1715729,96 L76.5857864,97.4142136 L76.5857864,94.5857864 L75.1715729,96 Z M75,96.1715729 L73.5857864,97.5857864 L76.4142136,97.5857864 L75,96.1715729 Z M74.8284271,96 L73.4142136,94.5857864 L73.4142136,97.4142136 L74.8284271,96 Z M75,95.8284271 L76.4142136,94.4142136 L73.5857864,94.4142136 L75,95.8284271 Z" id="Polygon" stroke="#32D7E6" stroke-width="4"></path>
        <path d="M30.1715729,101 L31.5857864,102.414214 L31.5857864,99.5857864 L30.1715729,101 Z M30,101.171573 L28.5857864,102.585786 L31.4142136,102.585786 L30,101.171573 Z M29.8284271,101 L28.4142136,99.5857864 L28.4142136,102.414214 L29.8284271,101 Z M30,100.828427 L31.4142136,99.4142136 L28.5857864,99.4142136 L30,100.828427 Z" id="Polygon-Copy-2" stroke="#32D7E6" stroke-width="4"></path>
        <path d="M50.1715729,101 L51.5857864,102.414214 L51.5857864,99.5857864 L50.1715729,101 Z M50,101.171573 L48.5857864,102.585786 L51.4142136,102.585786 L50,101.171573 Z M49.8284271,101 L48.4142136,99.5857864 L48.4142136,102.414214 L49.8284271,101 Z M50,100.828427 L51.4142136,99.4142136 L48.5857864,99.4142136 L50,100.828427 Z" id="Polygon-Copy-5" stroke="#32D7E6" stroke-width="4"></path>
        <path d="M70.1715729,101 L71.5857864,102.414214 L71.5857864,99.5857864 L70.1715729,101 Z M70,101.171573 L68.5857864,102.585786 L71.4142136,102.585786 L70,101.171573 Z M69.8284271,101 L68.4142136,99.5857864 L68.4142136,102.414214 L69.8284271,101 Z M70,100.828427 L71.4142136,99.4142136 L68.5857864,99.4142136 L70,100.828427 Z" id="Polygon-Copy" stroke="#32D7E6" stroke-width="4"></path>
        <path d="M25.1715729,106 L26.5857864,107.414214 L26.5857864,104.585786 L25.1715729,106 Z M25,106.171573 L23.5857864,107.585786 L26.4142136,107.585786 L25,106.171573 Z M24.8284271,106 L23.4142136,104.585786 L23.4142136,107.414214 L24.8284271,106 Z M25,105.828427 L26.4142136,104.414214 L23.5857864,104.414214 L25,105.828427 Z" id="Polygon-Copy-8" stroke="#32D7E6" stroke-width="4"></path>
        <path d="M45.1715729,106 L46.5857864,107.414214 L46.5857864,104.585786 L45.1715729,106 Z M45,106.171573 L43.5857864,107.585786 L46.4142136,107.585786 L45,106.171573 Z M44.8284271,106 L43.4142136,104.585786 L43.4142136,107.414214 L44.8284271,106 Z M45,105.828427 L46.4142136,104.414214 L43.5857864,104.414214 L45,105.828427 Z" id="Polygon-Copy-7" stroke="#32D7E6" stroke-width="4"></path>
        <path d="M65.1715729,106 L66.5857864,107.414214 L66.5857864,104.585786 L65.1715729,106 Z M65,106.171573 L63.5857864,107.585786 L66.4142136,107.585786 L65,106.171573 Z M64.8284271,106 L63.4142136,104.585786 L63.4142136,107.414214 L64.8284271,106 Z M65,105.828427 L66.4142136,104.414214 L63.5857864,104.414214 L65,105.828427 Z" id="Polygon-Copy-6" stroke="#32D7E6" stroke-width="4"></path>
    </g>
</svg>