<svg width="120" height="120" viewBox="0 0 120 120" fill="none" xmlns="http://www.w3.org/2000/svg">
<rect width="120" height="120" fill="#012527"/>
<mask id="path-1-inside-1_2_50" fill="white">
<path fill-rule="evenodd" clip-rule="evenodd" d="M109.456 10.5442L84 0L58.5442 10.5442L52.9602 24.0251L36 17L10.5442 27.5442L0 53L10.5442 78.4558L36 89H77L102.456 78.4558L113 53L112.979 52.9497L120 36L109.456 10.5442Z"/>
</mask>
<path d="M84 0L85.1481 -2.77164L84 -3.24718L82.8519 -2.77164L84 0ZM109.456 10.5442L112.227 9.3961L111.752 8.24805L110.604 7.77252L109.456 10.5442ZM58.5442 10.5442L57.3961 7.77252L56.2481 8.24805L55.7725 9.39611L58.5442 10.5442ZM52.9602 24.0251L51.8121 26.7968L54.5837 27.9448L55.7318 25.1732L52.9602 24.0251ZM36 17L37.1481 14.2284L36 13.7528L34.8519 14.2284L36 17ZM10.5442 27.5442L9.3961 24.7725L8.24805 25.2481L7.77252 26.3961L10.5442 27.5442ZM0 53L-2.77164 51.8519L-3.24718 53L-2.77164 54.1481L0 53ZM10.5442 78.4558L7.77252 79.6039L8.24805 80.7519L9.3961 81.2275L10.5442 78.4558ZM36 89L34.8519 91.7716L35.4033 92H36V89ZM77 89V92H77.5967L78.1481 91.7716L77 89ZM102.456 78.4558L103.604 81.2275L104.752 80.7519L105.227 79.6039L102.456 78.4558ZM113 53L115.772 54.1481L116.247 53.0001L115.772 51.8521L113 53ZM112.979 52.9497L110.208 51.8017L109.732 52.9497L110.207 54.0976L112.979 52.9497ZM120 36L122.772 37.1481L123.247 36L122.772 34.8519L120 36ZM82.8519 2.77164L108.308 13.3158L110.604 7.77252L85.1481 -2.77164L82.8519 2.77164ZM59.6922 13.3158L85.1481 2.77164L82.8519 -2.77164L57.3961 7.77252L59.6922 13.3158ZM55.7318 25.1732L61.3158 11.6922L55.7725 9.39611L50.1885 22.8771L55.7318 25.1732ZM34.8519 19.7716L51.8121 26.7968L54.1082 21.2535L37.1481 14.2284L34.8519 19.7716ZM11.6922 30.3158L37.1481 19.7716L34.8519 14.2284L9.3961 24.7725L11.6922 30.3158ZM2.77164 54.1481L13.3158 28.6922L7.77252 26.3961L-2.77164 51.8519L2.77164 54.1481ZM13.3158 77.3078L2.77164 51.8519L-2.77164 54.1481L7.77252 79.6039L13.3158 77.3078ZM37.1481 86.2284L11.6922 75.6842L9.3961 81.2275L34.8519 91.7716L37.1481 86.2284ZM77 86H36V92H77V86ZM101.308 75.6842L75.8519 86.2284L78.1481 91.7716L103.604 81.2275L101.308 75.6842ZM110.228 51.8519L99.6842 77.3078L105.227 79.6039L115.772 54.1481L110.228 51.8519ZM110.207 54.0976L110.228 54.1479L115.772 51.8521L115.751 51.8018L110.207 54.0976ZM117.228 34.8519L110.208 51.8017L115.751 54.0978L122.772 37.1481L117.228 34.8519ZM106.684 11.6922L117.228 37.1481L122.772 34.8519L112.227 9.3961L106.684 11.6922Z" fill="#32D7E6" mask="url(#path-1-inside-1_2_50)"/>
<path d="M34 93.25L15 112.25" stroke="#32D7E6" stroke-width="3"/>
<path d="M49 93.25L30 112.25" stroke="#32D7E6" stroke-width="3"/>
<path d="M64 93.25L45 112.25" stroke="#32D7E6" stroke-width="3"/>
<path d="M79 93.25L60 112.25" stroke="#32D7E6" stroke-width="3"/>
</svg>
